<svg viewBox="0 0 485 115" xmlns="http://www.w3.org/2000/svg" class="mainHeader__logo">
    <g fill="#1A1919" fill-rule="evenodd">
        <path d="M54.39 4.733c6.84.044 13.08 1.253 18.719 3.631l.314.134c.075.03.15.062.226.094 1.042.44 2.063.927 3.064 1.462 4.686 2.424 9.036 5.597 13.05 9.517a56.217 56.217 0 0111.921 16.935c2.924 6.382 4.602 13.34 5.038 20.87.433 7.532-.872 15.269-3.92 23.208-2.659 6.924-6.528 12.935-11.607 18.034-5.08 5.099-10.791 9.046-17.135 11.842-6.345 2.795-13.012 4.303-20.003 4.517-5.907.182-11.678-.707-17.31-2.667-.738-.25-1.472-.525-2.201-.824-.296-.118-.592-.24-.887-.364-6.52-2.749-12.268-6.702-17.248-11.86C11.43 94.104 7.55 88.284 4.769 81.801 1.985 75.317.416 68.408.061 61.07c-.357-7.336.849-14.607 3.613-21.808 3.013-7.846 7.262-14.316 12.747-19.404 5.484-5.089 11.473-8.892 17.967-11.411 6.493-2.516 13.16-3.755 20.002-3.714zm4.505 4.153c-4.09 1.119-7.812 3.544-11.162 7.28-3.352 3.735-6.46 8.538-9.323 14.41-2.865 5.872-5.697 12.456-8.496 19.748-3.687 9.602-6.294 17.754-7.821 24.457-1.528 6.704-2.053 12.327-1.575 16.873.477 4.546 1.951 8.199 4.422 10.956 2.47 2.759 5.805 5.022 10.007 6.794l.436.181a47.95 47.95 0 002.103.783c4.5 1.51 8.49 1.755 11.974.732 4.125-1.21 7.834-3.72 11.129-7.535 3.294-3.812 6.325-8.701 9.096-14.668 2.767-5.965 5.536-12.548 8.3-19.749 2.48-6.46 4.678-12.694 6.591-18.7 1.913-6.004 2.941-11.576 3.085-16.719.144-5.141-.873-9.701-3.051-13.676-1.761-3.214-4.647-5.904-8.66-8.07a48.007 48.007 0 00-3.266-1.544l.221.092c-5.251-2.215-9.921-2.761-14.01-1.645zM114.676 40.361c18.316-8.879 21.895-12.226 32.087-29.548h1.79l-.066 29.553H164.6l.066 2.471h-16.113v46.142c0 2.037.276 3.784.55 4.948.689 2.621 3.581 4.513 6.886 4.513 4.27 0 6.749-1.747 9.365-6.405l2.065 1.019c-3.305 7.278-5.508 10.189-10.328 12.664-3.443 1.892-8.814 3.202-13.221 3.202-12.118 0-19.142-6.404-19.142-17.03V42.837h-10.191l.139-2.476M170.167 105.718c6.611-.146 8.676-2.038 8.676-7.86V51.424c0-5.968-1.239-8.006-5.646-8.006-.689 0-1.377.147-2.479.437l-.413-2.038 32.914-8.296.02 16.462c6.472-8.735 12.767-15.104 18.139-15.104 5.645 0 10.191 4.803 10.191 10.772 0 5.676-4.457 9.469-9.641 10.189-3.051.423-6.278-.031-8.639-3.345-.964-1.165-1.66-2.309-1.935-2.599-.551-.728-1.338-2.433-2.302-2.433s-1.79.292-2.616.873c-2.479 1.893-3.361 2.384-3.361 11.263l.144 38.259c0 5.822 2.065 7.86 8.813 8.005v1.893h-41.865v-2.038M255.229.156c7.137 0 12.873 5.646 12.873 12.703 0 7.058-5.608 12.833-12.745 12.833s-12.873-5.775-12.873-12.833c0-7.057 5.736-12.703 12.745-12.703zm-19.228 105.707c6.747-.145 8.814-2.037 8.814-8.005V51.279c0-5.823-1.24-7.861-5.647-7.861-.688 0-1.239.147-2.478.437l-.413-2.038 32.775-8.296-.413 64.337c0 5.968 2.065 7.86 8.676 8.005v1.893h-41.314v-1.893zM309.067 33.521v53.566c0 7.132 2.535 11.388 7.356 11.388 3.167 0 5.382.42 9.652-4.093l-.07-42.958c0-6.113-1.514-8.006-5.784-8.006-.826 0-1.377.147-2.616.437l-.413-2.038 32.913-8.296.275 57.641c0 6.259 1.515 8.442 5.509 8.442.689 0 1.653 0 3.029-.291l.276 2.184-33.189 8.151.172-13.75c-1.721 2.859-4.319 5.32-5.971 6.776-5.371 4.366-10.451 6.246-16.373 6.246-5.37 0-10.466-1.892-14.047-5.094-3.855-3.639-5.095-7.278-5.095-16.012v-36.39c0-5.968-1.515-8.006-5.784-8.006-.551 0-1.24.147-2.479.437l-.413-2.038 33.052-8.296M362.638 105.718c7.161-.146 7.534-2.038 7.534-7.86V51.424c0-5.968-1.514-8.006-5.783-8.006-.688 0-1.377.147-2.479.437l-.413-2.038 32.777-8.296-.004 14.924c3.154-4.123 3.442-5.588 8.266-9.102 5.2-3.006 9.088-4.804 14.047-4.804 4.545 0 8.952 1.456 12.256 3.785 2.616 1.747 4.274 5.123 6.065 9.926 3.707-4.23 5.09-6.869 7.981-8.762 4.271-3.348 9.227-4.949 14.598-4.949 5.785 0 11.156 2.039 14.737 5.822 3.165 3.349 4.13 7.279 4.13 16.594v40.903c0 5.676.513 7.714 7.672 7.86v2.038h-38.343v-2.038c6.197-.146 6.433-2.184 6.433-7.86l.138-40.32c0-5.677-.048-6.861-1.425-8.898-.962-1.893-3.054-3.314-5.533-3.314-3.306 0-6.639.83-10.081 4.613l.1 47.919c0 5.676-.039 7.714 5.884 7.86v2.038h-36.004v-2.038c6.197-.146 6.159-2.184 6.159-7.86l.274-41.339c0-7.423-2.132-11.648-7.088-11.648-3.443 0-5.846.735-10.389 5.393l.127 47.594c0 2.619-.222 5.917 1.43 6.79 1.239.874 2.11 1.07 5.14 1.07v2.038h-38.206v-2.038">
        </path>
    </g>
</svg>